<svg width="373" height="142" viewBox="0 0 373 142" fill="none" xmlns="http://www.w3.org/2000/svg">
<path d="M60.4745 19.776H20.4345V43.514H59.3306V62.39H20.4345V101H0.700549V0.899993H60.4745V19.776ZM131.875 101L125.869 82.982H85.9721L79.9661 101H58.6591L93.6941 0.899993H118.147L153.325 101H131.875ZM92.2641 64.535H119.72L105.992 23.637L92.2641 64.535ZM199.939 0.899993C213.667 0.899993 225.107 5.71433 234.259 15.343C243.506 24.9717 248.13 36.8407 248.13 50.95C248.13 65.0593 243.506 76.9283 234.259 86.557C225.107 96.1857 213.667 101 199.939 101H160.185V0.899993H199.939ZM199.939 82.124C208.614 82.124 215.669 79.264 221.103 73.544C226.537 67.7287 229.254 60.1973 229.254 50.95C229.254 41.7027 226.537 34.219 221.103 28.499C215.669 22.6837 208.614 19.776 199.939 19.776H179.919V82.124H199.939ZM259.268 0.899993H279.002V101H259.268V0.899993ZM352.587 0.899993H372.321V101H357.306L314.406 39.796V101H294.672V0.899993H309.687L352.587 61.961V0.899993ZM5.15425 129.808C6.29558 129.808 7.26625 130.213 8.06625 131.024C8.87691 131.835 9.28225 132.827 9.28225 134C9.28225 135.173 8.87691 136.165 8.06625 136.976C7.26625 137.787 6.29558 138.192 5.15425 138.192C3.73558 138.192 2.65825 137.605 1.92225 136.432V141.2H0.866246V130H1.92225V131.568C2.65825 130.395 3.73558 129.808 5.15425 129.808ZM2.83425 136.256C3.44225 136.864 4.18891 137.168 5.07425 137.168C5.95958 137.168 6.70625 136.864 7.31425 136.256C7.92225 135.637 8.22625 134.885 8.22625 134C8.22625 133.115 7.92225 132.368 7.31425 131.76C6.70625 131.141 5.95958 130.832 5.07425 130.832C4.18891 130.832 3.44225 131.141 2.83425 131.76C2.22625 132.368 1.92225 133.115 1.92225 134C1.92225 134.885 2.22625 135.637 2.83425 136.256ZM11.7741 131.328C12.2648 130.357 13.1075 129.872 14.3021 129.872V130.896C13.5768 130.896 12.9741 131.109 12.4941 131.536C12.0141 131.963 11.7741 132.635 11.7741 133.552V138H10.7181V130H11.7741V131.328ZM21.649 136.992C20.8383 137.792 19.8463 138.192 18.673 138.192C17.4997 138.192 16.5023 137.792 15.681 136.992C14.8703 136.181 14.465 135.184 14.465 134C14.465 132.816 14.8703 131.824 15.681 131.024C16.5023 130.213 17.4997 129.808 18.673 129.808C19.8463 129.808 20.8383 130.213 21.649 131.024C22.4703 131.824 22.881 132.816 22.881 134C22.881 135.184 22.4703 136.181 21.649 136.992ZM16.433 136.256C17.041 136.864 17.7877 137.168 18.673 137.168C19.5583 137.168 20.305 136.864 20.913 136.256C21.521 135.637 21.825 134.885 21.825 134C21.825 133.115 21.521 132.368 20.913 131.76C20.305 131.141 19.5583 130.832 18.673 130.832C17.7877 130.832 17.041 131.141 16.433 131.76C15.825 132.368 15.521 133.115 15.521 134C15.521 134.885 15.825 135.637 16.433 136.256ZM31.2081 126.8H32.2641V138H31.2081V136.432C30.4721 137.605 29.3948 138.192 27.9761 138.192C26.8348 138.192 25.8588 137.787 25.0481 136.976C24.2481 136.165 23.8481 135.173 23.8481 134C23.8481 132.827 24.2481 131.835 25.0481 131.024C25.8588 130.213 26.8348 129.808 27.9761 129.808C29.3948 129.808 30.4721 130.395 31.2081 131.568V126.8ZM25.8161 136.256C26.4241 136.864 27.1708 137.168 28.0561 137.168C28.9415 137.168 29.6881 136.864 30.2961 136.256C30.9041 135.637 31.2081 134.885 31.2081 134C31.2081 133.115 30.9041 132.368 30.2961 131.76C29.6881 131.141 28.9415 130.832 28.0561 130.832C27.1708 130.832 26.4241 131.141 25.8161 131.76C25.2081 132.368 24.9041 133.115 24.9041 134C24.9041 134.885 25.2081 135.637 25.8161 136.256ZM39.812 130H40.868V138H39.812V136.752C39.2147 137.712 38.3187 138.192 37.124 138.192C36.1533 138.192 35.3853 137.899 34.82 137.312C34.2653 136.715 33.988 135.915 33.988 134.912V130H35.044V134.912C35.044 135.627 35.2307 136.181 35.604 136.576C35.988 136.971 36.5267 137.168 37.22 137.168C37.988 137.168 38.612 136.928 39.092 136.448C39.572 135.957 39.812 135.205 39.812 134.192V130ZM46.5099 138.192C45.3045 138.192 44.3019 137.792 43.5019 136.992C42.7019 136.181 42.3019 135.184 42.3019 134C42.3019 132.816 42.7019 131.824 43.5019 131.024C44.3019 130.213 45.3045 129.808 46.5099 129.808C47.2992 129.808 48.0085 130 48.6379 130.384C49.2672 130.757 49.7259 131.264 50.0139 131.904L49.1499 132.4C48.9365 131.92 48.5899 131.541 48.1099 131.264C47.6405 130.976 47.1072 130.832 46.5099 130.832C45.6245 130.832 44.8779 131.141 44.2699 131.76C43.6619 132.368 43.3579 133.115 43.3579 134C43.3579 134.885 43.6619 135.637 44.2699 136.256C44.8779 136.864 45.6245 137.168 46.5099 137.168C47.1072 137.168 47.6405 137.029 48.1099 136.752C48.5792 136.464 48.9472 136.08 49.2139 135.6L50.0939 136.112C49.7632 136.752 49.2779 137.259 48.6379 137.632C47.9979 138.005 47.2885 138.192 46.5099 138.192ZM55.53 131.024H53.226V135.872C53.226 136.309 53.3113 136.624 53.482 136.816C53.6527 136.997 53.9087 137.093 54.25 137.104C54.5913 137.104 55.018 137.093 55.53 137.072V138C54.41 138.171 53.5673 138.091 53.002 137.76C52.4473 137.429 52.17 136.8 52.17 135.872V131.024H50.49V130H52.17V128.08L53.226 127.76V130H55.53V131.024ZM58.042 128.08C57.8927 128.229 57.7113 128.304 57.498 128.304C57.2847 128.304 57.1033 128.229 56.954 128.08C56.8047 127.931 56.73 127.749 56.73 127.536C56.73 127.323 56.8047 127.141 56.954 126.992C57.1033 126.843 57.2847 126.768 57.498 126.768C57.7113 126.768 57.8927 126.843 58.042 126.992C58.1913 127.141 58.266 127.323 58.266 127.536C58.266 127.749 58.1913 127.931 58.042 128.08ZM56.97 138V130H58.026V138H56.97ZM66.6509 136.992C65.8402 137.792 64.8482 138.192 63.6749 138.192C62.5015 138.192 61.5042 137.792 60.6829 136.992C59.8722 136.181 59.4669 135.184 59.4669 134C59.4669 132.816 59.8722 131.824 60.6829 131.024C61.5042 130.213 62.5015 129.808 63.6749 129.808C64.8482 129.808 65.8402 130.213 66.6509 131.024C67.4722 131.824 67.8829 132.816 67.8829 134C67.8829 135.184 67.4722 136.181 66.6509 136.992ZM61.4349 136.256C62.0429 136.864 62.7895 137.168 63.6749 137.168C64.5602 137.168 65.3069 136.864 65.9149 136.256C66.5229 135.637 66.8269 134.885 66.8269 134C66.8269 133.115 66.5229 132.368 65.9149 131.76C65.3069 131.141 64.5602 130.832 63.6749 130.832C62.7895 130.832 62.0429 131.141 61.4349 131.76C60.8269 132.368 60.5229 133.115 60.5229 134C60.5229 134.885 60.8269 135.637 61.4349 136.256ZM73.074 129.808C74.0447 129.808 74.8073 130.107 75.362 130.704C75.9273 131.291 76.21 132.085 76.21 133.088V138H75.154V133.088C75.154 132.373 74.962 131.819 74.578 131.424C74.2047 131.029 73.6713 130.832 72.978 130.832C72.21 130.832 71.586 131.077 71.106 131.568C70.626 132.048 70.386 132.795 70.386 133.808V138H69.33V130H70.386V131.248C70.9833 130.288 71.8793 129.808 73.074 129.808ZM79.6919 136.64L78.7319 140.24H77.7719L78.4119 136.64H79.6919ZM89.4236 129.808C90.565 129.808 91.5356 130.213 92.3356 131.024C93.1463 131.835 93.5516 132.827 93.5516 134C93.5516 135.173 93.1463 136.165 92.3356 136.976C91.5356 137.787 90.565 138.192 89.4236 138.192C88.005 138.192 86.9276 137.605 86.1916 136.432V141.2H85.1356V130H86.1916V131.568C86.9276 130.395 88.005 129.808 89.4236 129.808ZM87.1036 136.256C87.7116 136.864 88.4583 137.168 89.3436 137.168C90.229 137.168 90.9756 136.864 91.5836 136.256C92.1916 135.637 92.4956 134.885 92.4956 134C92.4956 133.115 92.1916 132.368 91.5836 131.76C90.9756 131.141 90.229 130.832 89.3436 130.832C88.4583 130.832 87.7116 131.141 87.1036 131.76C86.4956 132.368 86.1916 133.115 86.1916 134C86.1916 134.885 86.4956 135.637 87.1036 136.256ZM101.691 136.992C100.881 137.792 99.8888 138.192 98.7155 138.192C97.5422 138.192 96.5448 137.792 95.7235 136.992C94.9128 136.181 94.5075 135.184 94.5075 134C94.5075 132.816 94.9128 131.824 95.7235 131.024C96.5448 130.213 97.5422 129.808 98.7155 129.808C99.8888 129.808 100.881 130.213 101.691 131.024C102.513 131.824 102.923 132.816 102.923 134C102.923 135.184 102.513 136.181 101.691 136.992ZM96.4755 136.256C97.0835 136.864 97.8302 137.168 98.7155 137.168C99.6008 137.168 100.347 136.864 100.955 136.256C101.563 135.637 101.867 134.885 101.867 134C101.867 133.115 101.563 132.368 100.955 131.76C100.347 131.141 99.6008 130.832 98.7155 130.832C97.8302 130.832 97.0835 131.141 96.4755 131.76C95.8675 132.368 95.5635 133.115 95.5635 134C95.5635 134.885 95.8675 135.637 96.4755 136.256ZM105.046 132.096C105.046 132.459 105.206 132.747 105.526 132.96C105.846 133.173 106.236 133.339 106.694 133.456C107.153 133.573 107.612 133.707 108.07 133.856C108.529 133.995 108.918 134.235 109.238 134.576C109.558 134.907 109.718 135.344 109.718 135.888C109.718 136.571 109.446 137.125 108.902 137.552C108.369 137.979 107.676 138.192 106.822 138.192C106.054 138.192 105.398 138.021 104.854 137.68C104.321 137.339 103.948 136.896 103.734 136.352L104.63 135.824C104.78 136.24 105.046 136.571 105.43 136.816C105.825 137.051 106.289 137.168 106.822 137.168C107.345 137.168 107.782 137.067 108.134 136.864C108.486 136.651 108.662 136.325 108.662 135.888C108.662 135.525 108.502 135.237 108.182 135.024C107.862 134.811 107.473 134.645 107.014 134.528C106.556 134.411 106.097 134.283 105.638 134.144C105.18 133.995 104.79 133.755 104.47 133.424C104.15 133.083 103.99 132.64 103.99 132.096C103.99 131.445 104.246 130.901 104.758 130.464C105.281 130.027 105.937 129.808 106.726 129.808C107.377 129.808 107.948 129.957 108.438 130.256C108.929 130.544 109.292 130.939 109.526 131.44L108.646 131.952C108.337 131.205 107.697 130.832 106.726 130.832C106.268 130.832 105.873 130.944 105.542 131.168C105.212 131.381 105.046 131.691 105.046 132.096ZM115.087 131.024H112.783V135.872C112.783 136.309 112.869 136.624 113.039 136.816C113.21 136.997 113.466 137.093 113.807 137.104C114.149 137.104 114.575 137.093 115.087 137.072V138C113.967 138.171 113.125 138.091 112.559 137.76C112.005 137.429 111.727 136.8 111.727 135.872V131.024H110.047V130H111.727V128.08L112.783 127.76V130H115.087V131.024ZM116.531 133.568V132.544H122.291V133.568H116.531ZM128.652 129.808C129.793 129.808 130.764 130.213 131.564 131.024C132.374 131.835 132.78 132.827 132.78 134C132.78 135.173 132.374 136.165 131.564 136.976C130.764 137.787 129.793 138.192 128.652 138.192C127.233 138.192 126.156 137.605 125.42 136.432V141.2H124.364V130H125.42V131.568C126.156 130.395 127.233 129.808 128.652 129.808ZM126.332 136.256C126.94 136.864 127.686 137.168 128.572 137.168C129.457 137.168 130.204 136.864 130.812 136.256C131.42 135.637 131.724 134.885 131.724 134C131.724 133.115 131.42 132.368 130.812 131.76C130.204 131.141 129.457 130.832 128.572 130.832C127.686 130.832 126.94 131.141 126.332 131.76C125.724 132.368 125.42 133.115 125.42 134C125.42 134.885 125.724 135.637 126.332 136.256ZM135.272 131.328C135.762 130.357 136.605 129.872 137.8 129.872V130.896C137.074 130.896 136.472 131.109 135.992 131.536C135.512 131.963 135.272 132.635 135.272 133.552V138H134.216V130H135.272V131.328ZM145.146 136.992C144.336 137.792 143.344 138.192 142.17 138.192C140.997 138.192 140 137.792 139.178 136.992C138.368 136.181 137.962 135.184 137.962 134C137.962 132.816 138.368 131.824 139.178 131.024C140 130.213 140.997 129.808 142.17 129.808C143.344 129.808 144.336 130.213 145.146 131.024C145.968 131.824 146.378 132.816 146.378 134C146.378 135.184 145.968 136.181 145.146 136.992ZM139.93 136.256C140.538 136.864 141.285 137.168 142.17 137.168C143.056 137.168 143.802 136.864 144.41 136.256C145.018 135.637 145.322 134.885 145.322 134C145.322 133.115 145.018 132.368 144.41 131.76C143.802 131.141 143.056 130.832 142.17 130.832C141.285 130.832 140.538 131.141 139.93 131.76C139.322 132.368 139.018 133.115 139.018 134C139.018 134.885 139.322 135.637 139.93 136.256ZM154.706 126.8H155.762V138H154.706V136.432C153.97 137.605 152.892 138.192 151.474 138.192C150.332 138.192 149.356 137.787 148.546 136.976C147.746 136.165 147.346 135.173 147.346 134C147.346 132.827 147.746 131.835 148.546 131.024C149.356 130.213 150.332 129.808 151.474 129.808C152.892 129.808 153.97 130.395 154.706 131.568V126.8ZM149.314 136.256C149.922 136.864 150.668 137.168 151.554 137.168C152.439 137.168 153.186 136.864 153.794 136.256C154.402 135.637 154.706 134.885 154.706 134C154.706 133.115 154.402 132.368 153.794 131.76C153.186 131.141 152.439 130.832 151.554 130.832C150.668 130.832 149.922 131.141 149.314 131.76C148.706 132.368 148.402 133.115 148.402 134C148.402 134.885 148.706 135.637 149.314 136.256ZM163.309 130H164.365V138H163.309V136.752C162.712 137.712 161.816 138.192 160.621 138.192C159.651 138.192 158.883 137.899 158.317 137.312C157.763 136.715 157.485 135.915 157.485 134.912V130H158.541V134.912C158.541 135.627 158.728 136.181 159.101 136.576C159.485 136.971 160.024 137.168 160.717 137.168C161.485 137.168 162.109 136.928 162.589 136.448C163.069 135.957 163.309 135.205 163.309 134.192V130ZM170.007 138.192C168.802 138.192 167.799 137.792 166.999 136.992C166.199 136.181 165.799 135.184 165.799 134C165.799 132.816 166.199 131.824 166.999 131.024C167.799 130.213 168.802 129.808 170.007 129.808C170.797 129.808 171.506 130 172.135 130.384C172.765 130.757 173.223 131.264 173.511 131.904L172.647 132.4C172.434 131.92 172.087 131.541 171.607 131.264C171.138 130.976 170.605 130.832 170.007 130.832C169.122 130.832 168.375 131.141 167.767 131.76C167.159 132.368 166.855 133.115 166.855 134C166.855 134.885 167.159 135.637 167.767 136.256C168.375 136.864 169.122 137.168 170.007 137.168C170.605 137.168 171.138 137.029 171.607 136.752C172.077 136.464 172.445 136.08 172.711 135.6L173.591 136.112C173.261 136.752 172.775 137.259 172.135 137.632C171.495 138.005 170.786 138.192 170.007 138.192ZM179.027 131.024H176.723V135.872C176.723 136.309 176.809 136.624 176.979 136.816C177.15 136.997 177.406 137.093 177.747 137.104C178.089 137.104 178.515 137.093 179.027 137.072V138C177.907 138.171 177.065 138.091 176.499 137.76C175.945 137.429 175.667 136.8 175.667 135.872V131.024H173.987V130H175.667V128.08L176.723 127.76V130H179.027V131.024ZM181.54 128.08C181.39 128.229 181.209 128.304 180.996 128.304C180.782 128.304 180.601 128.229 180.452 128.08C180.302 127.931 180.228 127.749 180.228 127.536C180.228 127.323 180.302 127.141 180.452 126.992C180.601 126.843 180.782 126.768 180.996 126.768C181.209 126.768 181.39 126.843 181.54 126.992C181.689 127.141 181.764 127.323 181.764 127.536C181.764 127.749 181.689 127.931 181.54 128.08ZM180.468 138V130H181.524V138H180.468ZM190.148 136.992C189.338 137.792 188.346 138.192 187.172 138.192C185.999 138.192 185.002 137.792 184.18 136.992C183.37 136.181 182.964 135.184 182.964 134C182.964 132.816 183.37 131.824 184.18 131.024C185.002 130.213 185.999 129.808 187.172 129.808C188.346 129.808 189.338 130.213 190.148 131.024C190.97 131.824 191.38 132.816 191.38 134C191.38 135.184 190.97 136.181 190.148 136.992ZM184.932 136.256C185.54 136.864 186.287 137.168 187.172 137.168C188.058 137.168 188.804 136.864 189.412 136.256C190.02 135.637 190.324 134.885 190.324 134C190.324 133.115 190.02 132.368 189.412 131.76C188.804 131.141 188.058 130.832 187.172 130.832C186.287 130.832 185.54 131.141 184.932 131.76C184.324 132.368 184.02 133.115 184.02 134C184.02 134.885 184.324 135.637 184.932 136.256ZM196.571 129.808C197.542 129.808 198.305 130.107 198.859 130.704C199.425 131.291 199.707 132.085 199.707 133.088V138H198.651V133.088C198.651 132.373 198.459 131.819 198.075 131.424C197.702 131.029 197.169 130.832 196.475 130.832C195.707 130.832 195.083 131.077 194.603 131.568C194.123 132.048 193.883 132.795 193.883 133.808V138H192.827V130H193.883V131.248C194.481 130.288 195.377 129.808 196.571 129.808ZM205.941 132.096C205.941 132.459 206.101 132.747 206.421 132.96C206.741 133.173 207.131 133.339 207.589 133.456C208.048 133.573 208.507 133.707 208.965 133.856C209.424 133.995 209.813 134.235 210.133 134.576C210.453 134.907 210.613 135.344 210.613 135.888C210.613 136.571 210.341 137.125 209.797 137.552C209.264 137.979 208.571 138.192 207.717 138.192C206.949 138.192 206.293 138.021 205.749 137.68C205.216 137.339 204.843 136.896 204.629 136.352L205.525 135.824C205.675 136.24 205.941 136.571 206.325 136.816C206.72 137.051 207.184 137.168 207.717 137.168C208.24 137.168 208.677 137.067 209.029 136.864C209.381 136.651 209.557 136.325 209.557 135.888C209.557 135.525 209.397 135.237 209.077 135.024C208.757 134.811 208.368 134.645 207.909 134.528C207.451 134.411 206.992 134.283 206.533 134.144C206.075 133.995 205.685 133.755 205.365 133.424C205.045 133.083 204.885 132.64 204.885 132.096C204.885 131.445 205.141 130.901 205.653 130.464C206.176 130.027 206.832 129.808 207.621 129.808C208.272 129.808 208.843 129.957 209.333 130.256C209.824 130.544 210.187 130.939 210.421 131.44L209.541 131.952C209.232 131.205 208.592 130.832 207.621 130.832C207.163 130.832 206.768 130.944 206.437 131.168C206.107 131.381 205.941 131.691 205.941 132.096ZM215.982 131.024H213.678V135.872C213.678 136.309 213.764 136.624 213.934 136.816C214.105 136.997 214.361 137.093 214.702 137.104C215.044 137.104 215.47 137.093 215.982 137.072V138C214.862 138.171 214.02 138.091 213.454 137.76C212.9 137.429 212.622 136.8 212.622 135.872V131.024H210.942V130H212.622V128.08L213.678 127.76V130H215.982V131.024ZM223.054 130H224.11V138H223.054V136.752C222.457 137.712 221.561 138.192 220.366 138.192C219.396 138.192 218.628 137.899 218.062 137.312C217.508 136.715 217.23 135.915 217.23 134.912V130H218.286V134.912C218.286 135.627 218.473 136.181 218.846 136.576C219.23 136.971 219.769 137.168 220.462 137.168C221.23 137.168 221.854 136.928 222.334 136.448C222.814 135.957 223.054 135.205 223.054 134.192V130ZM232.904 126.8H233.96V138H232.904V136.432C232.168 137.605 231.091 138.192 229.672 138.192C228.531 138.192 227.555 137.787 226.744 136.976C225.944 136.165 225.544 135.173 225.544 134C225.544 132.827 225.944 131.835 226.744 131.024C227.555 130.213 228.531 129.808 229.672 129.808C231.091 129.808 232.168 130.395 232.904 131.568V126.8ZM227.512 136.256C228.12 136.864 228.867 137.168 229.752 137.168C230.638 137.168 231.384 136.864 231.992 136.256C232.6 135.637 232.904 134.885 232.904 134C232.904 133.115 232.6 132.368 231.992 131.76C231.384 131.141 230.638 130.832 229.752 130.832C228.867 130.832 228.12 131.141 227.512 131.76C226.904 132.368 226.6 133.115 226.6 134C226.6 134.885 226.904 135.637 227.512 136.256ZM236.948 128.08C236.799 128.229 236.618 128.304 236.404 128.304C236.191 128.304 236.01 128.229 235.86 128.08C235.711 127.931 235.636 127.749 235.636 127.536C235.636 127.323 235.711 127.141 235.86 126.992C236.01 126.843 236.191 126.768 236.404 126.768C236.618 126.768 236.799 126.843 236.948 126.992C237.098 127.141 237.172 127.323 237.172 127.536C237.172 127.749 237.098 127.931 236.948 128.08ZM235.876 138V130H236.932V138H235.876ZM245.557 136.992C244.746 137.792 243.754 138.192 242.581 138.192C241.408 138.192 240.41 137.792 239.589 136.992C238.778 136.181 238.373 135.184 238.373 134C238.373 132.816 238.778 131.824 239.589 131.024C240.41 130.213 241.408 129.808 242.581 129.808C243.754 129.808 244.746 130.213 245.557 131.024C246.378 131.824 246.789 132.816 246.789 134C246.789 135.184 246.378 136.181 245.557 136.992ZM240.341 136.256C240.949 136.864 241.696 137.168 242.581 137.168C243.466 137.168 244.213 136.864 244.821 136.256C245.429 135.637 245.733 134.885 245.733 134C245.733 133.115 245.429 132.368 244.821 131.76C244.213 131.141 243.466 130.832 242.581 130.832C241.696 130.832 240.949 131.141 240.341 131.76C239.733 132.368 239.429 133.115 239.429 134C239.429 134.885 239.733 135.637 240.341 136.256ZM256.204 129.808C257.346 129.808 258.316 130.213 259.116 131.024C259.927 131.835 260.332 132.827 260.332 134C260.332 135.173 259.927 136.165 259.116 136.976C258.316 137.787 257.346 138.192 256.204 138.192C254.786 138.192 253.708 137.605 252.972 136.432V138H251.916V126.8H252.972V131.568C253.708 130.395 254.786 129.808 256.204 129.808ZM253.884 136.256C254.492 136.864 255.239 137.168 256.124 137.168C257.01 137.168 257.756 136.864 258.364 136.256C258.972 135.637 259.276 134.885 259.276 134C259.276 133.115 258.972 132.368 258.364 131.76C257.756 131.141 257.01 130.832 256.124 130.832C255.239 130.832 254.492 131.141 253.884 131.76C253.276 132.368 252.972 133.115 252.972 134C252.972 134.885 253.276 135.637 253.884 136.256ZM268.648 130H269.704V138H268.648V136.432C267.912 137.605 266.835 138.192 265.416 138.192C264.275 138.192 263.299 137.787 262.488 136.976C261.688 136.165 261.288 135.173 261.288 134C261.288 132.827 261.688 131.835 262.488 131.024C263.299 130.213 264.275 129.808 265.416 129.808C266.835 129.808 267.912 130.395 268.648 131.568V130ZM263.256 136.256C263.864 136.864 264.611 137.168 265.496 137.168C266.381 137.168 267.128 136.864 267.736 136.256C268.344 135.637 268.648 134.885 268.648 134C268.648 133.115 268.344 132.368 267.736 131.76C267.128 131.141 266.381 130.832 265.496 130.832C264.611 130.832 263.864 131.141 263.256 131.76C262.648 132.368 262.344 133.115 262.344 134C262.344 134.885 262.648 135.637 263.256 136.256ZM272.452 132.096C272.452 132.459 272.612 132.747 272.932 132.96C273.252 133.173 273.641 133.339 274.1 133.456C274.559 133.573 275.017 133.707 275.476 133.856C275.935 133.995 276.324 134.235 276.644 134.576C276.964 134.907 277.124 135.344 277.124 135.888C277.124 136.571 276.852 137.125 276.308 137.552C275.775 137.979 275.081 138.192 274.228 138.192C273.46 138.192 272.804 138.021 272.26 137.68C271.727 137.339 271.353 136.896 271.14 136.352L272.036 135.824C272.185 136.24 272.452 136.571 272.836 136.816C273.231 137.051 273.695 137.168 274.228 137.168C274.751 137.168 275.188 137.067 275.54 136.864C275.892 136.651 276.068 136.325 276.068 135.888C276.068 135.525 275.908 135.237 275.588 135.024C275.268 134.811 274.879 134.645 274.42 134.528C273.961 134.411 273.503 134.283 273.044 134.144C272.585 133.995 272.196 133.755 271.876 133.424C271.556 133.083 271.396 132.64 271.396 132.096C271.396 131.445 271.652 130.901 272.164 130.464C272.687 130.027 273.343 129.808 274.132 129.808C274.783 129.808 275.353 129.957 275.844 130.256C276.335 130.544 276.697 130.939 276.932 131.44L276.052 131.952C275.743 131.205 275.103 130.832 274.132 130.832C273.673 130.832 273.279 130.944 272.948 131.168C272.617 131.381 272.452 131.691 272.452 132.096ZM282.027 129.808C283.211 129.808 284.166 130.229 284.891 131.072C285.627 131.904 285.995 132.891 285.995 134.032C285.995 134.149 285.985 134.315 285.963 134.528H278.939C279.046 135.339 279.387 135.984 279.963 136.464C280.55 136.933 281.27 137.168 282.123 137.168C282.731 137.168 283.254 137.045 283.691 136.8C284.139 136.544 284.475 136.213 284.699 135.808L285.627 136.352C285.275 136.917 284.795 137.365 284.187 137.696C283.579 138.027 282.886 138.192 282.107 138.192C280.849 138.192 279.825 137.797 279.035 137.008C278.246 136.219 277.851 135.216 277.851 134C277.851 132.805 278.241 131.808 279.019 131.008C279.798 130.208 280.801 129.808 282.027 129.808ZM282.027 130.832C281.195 130.832 280.497 131.083 279.931 131.584C279.377 132.075 279.046 132.715 278.939 133.504H284.907C284.801 132.661 284.475 132.005 283.931 131.536C283.387 131.067 282.753 130.832 282.027 130.832ZM294.235 126.8H295.291V138H294.235V136.432C293.499 137.605 292.422 138.192 291.003 138.192C289.862 138.192 288.886 137.787 288.075 136.976C287.275 136.165 286.875 135.173 286.875 134C286.875 132.827 287.275 131.835 288.075 131.024C288.886 130.213 289.862 129.808 291.003 129.808C292.422 129.808 293.499 130.395 294.235 131.568V126.8ZM288.843 136.256C289.451 136.864 290.198 137.168 291.083 137.168C291.968 137.168 292.715 136.864 293.323 136.256C293.931 135.637 294.235 134.885 294.235 134C294.235 133.115 293.931 132.368 293.323 131.76C292.715 131.141 291.968 130.832 291.083 130.832C290.198 130.832 289.451 131.141 288.843 131.76C288.235 132.368 287.931 133.115 287.931 134C287.931 134.885 288.235 135.637 288.843 136.256ZM301.959 128.08C301.81 128.229 301.628 128.304 301.415 128.304C301.202 128.304 301.02 128.229 300.871 128.08C300.722 127.931 300.647 127.749 300.647 127.536C300.647 127.323 300.722 127.141 300.871 126.992C301.02 126.843 301.202 126.768 301.415 126.768C301.628 126.768 301.81 126.843 301.959 126.992C302.108 127.141 302.183 127.323 302.183 127.536C302.183 127.749 302.108 127.931 301.959 128.08ZM300.887 138V130H301.943V138H300.887ZM307.608 129.808C308.578 129.808 309.341 130.107 309.896 130.704C310.461 131.291 310.744 132.085 310.744 133.088V138H309.688V133.088C309.688 132.373 309.496 131.819 309.112 131.424C308.738 131.029 308.205 130.832 307.512 130.832C306.744 130.832 306.12 131.077 305.64 131.568C305.16 132.048 304.92 132.795 304.92 133.808V138H303.864V130H304.92V131.248C305.517 130.288 306.413 129.808 307.608 129.808ZM326.546 126.8V138H325.426V128.496L321.506 135.056H321.346L317.426 128.496V138H316.306V126.8H317.698L321.426 133.04L325.154 126.8H326.546ZM335.327 136.992C334.516 137.792 333.524 138.192 332.351 138.192C331.177 138.192 330.18 137.792 329.359 136.992C328.548 136.181 328.143 135.184 328.143 134C328.143 132.816 328.548 131.824 329.359 131.024C330.18 130.213 331.177 129.808 332.351 129.808C333.524 129.808 334.516 130.213 335.327 131.024C336.148 131.824 336.559 132.816 336.559 134C336.559 135.184 336.148 136.181 335.327 136.992ZM330.111 136.256C330.719 136.864 331.465 137.168 332.351 137.168C333.236 137.168 333.983 136.864 334.591 136.256C335.199 135.637 335.503 134.885 335.503 134C335.503 133.115 335.199 132.368 334.591 131.76C333.983 131.141 333.236 130.832 332.351 130.832C331.465 130.832 330.719 131.141 330.111 131.76C329.503 132.368 329.199 133.115 329.199 134C329.199 134.885 329.503 135.637 330.111 136.256ZM338.681 132.096C338.681 132.459 338.841 132.747 339.161 132.96C339.481 133.173 339.871 133.339 340.329 133.456C340.788 133.573 341.247 133.707 341.705 133.856C342.164 133.995 342.553 134.235 342.873 134.576C343.193 134.907 343.353 135.344 343.353 135.888C343.353 136.571 343.081 137.125 342.537 137.552C342.004 137.979 341.311 138.192 340.457 138.192C339.689 138.192 339.033 138.021 338.489 137.68C337.956 137.339 337.583 136.896 337.369 136.352L338.265 135.824C338.415 136.24 338.681 136.571 339.065 136.816C339.46 137.051 339.924 137.168 340.457 137.168C340.98 137.168 341.417 137.067 341.769 136.864C342.121 136.651 342.297 136.325 342.297 135.888C342.297 135.525 342.137 135.237 341.817 135.024C341.497 134.811 341.108 134.645 340.649 134.528C340.191 134.411 339.732 134.283 339.273 134.144C338.815 133.995 338.425 133.755 338.105 133.424C337.785 133.083 337.625 132.64 337.625 132.096C337.625 131.445 337.881 130.901 338.393 130.464C338.916 130.027 339.572 129.808 340.361 129.808C341.012 129.808 341.583 129.957 342.073 130.256C342.564 130.544 342.927 130.939 343.161 131.44L342.281 131.952C341.972 131.205 341.332 130.832 340.361 130.832C339.903 130.832 339.508 130.944 339.177 131.168C338.847 131.381 338.681 131.691 338.681 132.096ZM348.289 138.192C347.083 138.192 346.081 137.792 345.281 136.992C344.481 136.181 344.081 135.184 344.081 134C344.081 132.816 344.481 131.824 345.281 131.024C346.081 130.213 347.083 129.808 348.289 129.808C349.078 129.808 349.787 130 350.417 130.384C351.046 130.757 351.505 131.264 351.793 131.904L350.929 132.4C350.715 131.92 350.369 131.541 349.889 131.264C349.419 130.976 348.886 130.832 348.289 130.832C347.403 130.832 346.657 131.141 346.049 131.76C345.441 132.368 345.137 133.115 345.137 134C345.137 134.885 345.441 135.637 346.049 136.256C346.657 136.864 347.403 137.168 348.289 137.168C348.886 137.168 349.419 137.029 349.889 136.752C350.358 136.464 350.726 136.08 350.993 135.6L351.873 136.112C351.542 136.752 351.057 137.259 350.417 137.632C349.777 138.005 349.067 138.192 348.289 138.192ZM359.695 136.992C358.884 137.792 357.892 138.192 356.719 138.192C355.545 138.192 354.548 137.792 353.727 136.992C352.916 136.181 352.511 135.184 352.511 134C352.511 132.816 352.916 131.824 353.727 131.024C354.548 130.213 355.545 129.808 356.719 129.808C357.892 129.808 358.884 130.213 359.695 131.024C360.516 131.824 360.927 132.816 360.927 134C360.927 135.184 360.516 136.181 359.695 136.992ZM354.479 136.256C355.087 136.864 355.833 137.168 356.719 137.168C357.604 137.168 358.351 136.864 358.959 136.256C359.567 135.637 359.871 134.885 359.871 134C359.871 133.115 359.567 132.368 358.959 131.76C358.351 131.141 357.604 130.832 356.719 130.832C355.833 130.832 355.087 131.141 354.479 131.76C353.871 132.368 353.567 133.115 353.567 134C353.567 134.885 353.871 135.637 354.479 136.256ZM371.693 130H372.781L370.317 138H369.165L367.101 131.552L365.037 138H363.885L361.421 130H362.509L364.477 136.64L366.573 130H367.629L369.725 136.64L371.693 130Z" fill="white"/>
</svg>
