<svg width="373" height="101" viewBox="0 0 373 101" fill="none" xmlns="http://www.w3.org/2000/svg">
<path d="M60.4745 19.776H20.4345V43.514H59.3306V62.39H20.4345V101H0.700549V0.899993H60.4745V19.776ZM131.875 101L125.869 82.982H85.9721L79.9661 101H58.6591L93.6941 0.899993H118.147L153.325 101H131.875ZM92.2641 64.535H119.72L105.992 23.637L92.2641 64.535ZM199.939 0.899993C213.667 0.899993 225.107 5.71433 234.259 15.343C243.506 24.9717 248.13 36.8407 248.13 50.95C248.13 65.0593 243.506 76.9283 234.259 86.557C225.107 96.1857 213.667 101 199.939 101H160.185V0.899993H199.939ZM199.939 82.124C208.614 82.124 215.669 79.264 221.103 73.544C226.537 67.7287 229.254 60.1973 229.254 50.95C229.254 41.7027 226.537 34.219 221.103 28.499C215.669 22.6837 208.614 19.776 199.939 19.776H179.919V82.124H199.939ZM259.268 0.899993H279.002V101H259.268V0.899993ZM352.587 0.899993H372.321V101H357.306L314.406 39.796V101H294.672V0.899993H309.687L352.587 61.961V0.899993Z" fill="white"/>
</svg>
